<svg aria-hidden="true" style="position: absolute; width: 0; height: 0; overflow: hidden;" version="1.1" xmlns="http://www.w3.org/2000/svg" xmlns:xlink="http://www.w3.org/1999/xlink">
<defs>
<symbol id="icon-arrow" viewBox="0 0 32 32">
<path style="fill: var(--color1, #392c72)" d="M17.667 16l-3.837-4.176c-0.152-0.154-0.245-0.365-0.245-0.598s0.094-0.445 0.245-0.598l-0 0c0.151-0.152 0.361-0.247 0.592-0.247s0.441 0.094 0.592 0.247l0 0 4.677 4.773c0.151 0.154 0.245 0.365 0.245 0.598s-0.094 0.444-0.245 0.598l0-0-4.678 4.773c-0.151 0.154-0.36 0.249-0.592 0.249s-0.441-0.095-0.592-0.249l-0-0c-0.152-0.154-0.245-0.365-0.245-0.598s0.094-0.444 0.245-0.598l-0 0 3.84-4.173zM16 0c8.837 0 16 7.163 16 16 0 8.838-7.163 16-16 16s-16-7.162-16-16c0-8.837 7.163-16 16-16zM16 29.923c0.044 0 0.097 0.001 0.149 0.001 7.69 0 13.925-6.234 13.925-13.925s-6.234-13.925-13.925-13.925c-0.052 0-0.105 0-0.157 0.001l0.008-0c-7.626 0.084-13.776 6.286-13.776 13.924s6.15 13.84 13.768 13.924l0.008 0z"></path>
</symbol>
<symbol id="icon-badge" viewBox="0 0 32 32">
<path style="fill: var(--color2, #ea5455)" d="M16 0c8.837 0 16 7.163 16 16s-7.163 16-16 16c-8.837 0-16-7.163-16-16s7.163-16 16-16z"></path>
</symbol>
<symbol id="icon-calendar" viewBox="0 0 32 32">
<path style="fill: var(--color3, #fff)" d="M29.334 3.001h-4.334v-2.001c0-0.552-0.448-1-1-1s-1 0.448-1 1v2h-6v-1.999c0-0.553-0.448-1.001-1.001-1.001s-1.001 0.448-1.001 1.001v0 2h-5.998v-2.001c0-0.552-0.448-1-1-1s-1 0.448-1 1v2h-4.335c-1.473 0.001-2.667 1.194-2.667 2.667v23.668c0 1.472 1.194 2.666 2.667 2.666h26.667c1.472 0 2.666-1.194 2.666-2.667v-23.668c0-1.472-1.194-2.665-2.666-2.665zM30 29.333c0 0 0 0 0 0 0 0.368-0.298 0.666-0.666 0.667h-26.667c-0.368 0-0.667-0.299-0.667-0.667v0-23.668c0-0.367 0.299-0.665 0.667-0.665h4.332v2c0 0.552 0.448 1 1 1s1-0.448 1-1v-2h6v2c0 0.553 0.448 1.001 1.001 1.001s1.001-0.448 1.001-1.001v0-2h5.999v2c0 0.552 0.448 1 1 1s1-0.448 1-1v-2h4.335c0.367 0 0.666 0.298 0.666 0.665v23.668zM6.999 12h4v3.001h-4v-3.001zM6.999 17.001h4v2.999h-4v-3.001zM6.999 22h4v3.001h-4v-3.001zM14 22h4v3.001h-4v-3.001zM14 16.999h4v3.001h-4v-3.001zM14 12h4v3.001h-4v-3.001zM21.001 22h4v3.001h-4v-3.001zM21.001 16.999h4v3.001h-4v-3.001zM21.001 12h4v3.001h-4v-3.001z"></path>
</symbol>
<symbol id="icon-chats" viewBox="0 0 35 32">
<path style="fill: var(--color4, #4f4f4f)" d="M17.333 6.251c0.299 0 0.541 0.242 0.541 0.541s-0.242 0.541-0.541 0.541v0c-5.771 0-10.833 3.037-10.833 6.5 0 0.299-0.243 0.542-0.542 0.542s-0.542-0.243-0.542-0.542v0c0-4.111 5.457-7.584 11.917-7.584zM17.333 0.833c-9.573 0-17.333 5.821-17.333 13 0 4.471 3.011 8.413 7.592 10.753 0 0.029-0.008 0.048-0.008 0.080 0 1.943-1.451 4.033-2.089 5.131h0.003c-0.051 0.114-0.080 0.248-0.080 0.388 0 0.542 0.439 0.981 0.981 0.981v0c0.101 0 0.28-0.027 0.276-0.015 3.385-0.555 6.573-3.667 7.316-4.567 1.004 0.157 2.162 0.247 3.342 0.248h0.001c9.571 0 17.333-5.821 17.333-13s-7.76-13-17.333-13zM17.333 24.667c-0.993 0-2.013-0.076-3.029-0.224-0.095-0.015-0.204-0.023-0.315-0.023-0.673 0-1.274 0.306-1.672 0.787l-0.003 0.004c-0.461 0.563-1.781 1.824-3.341 2.749 0.423-0.969 0.753-2.056 0.776-3.176 0.006-0.060 0.009-0.13 0.009-0.2 0-0.836-0.474-1.562-1.168-1.923l-0.012-0.006c-4.016-2.049-6.412-5.348-6.412-8.823 0-5.972 6.804-10.832 15.167-10.832 8.36 0 15.167 4.86 15.167 10.833s-6.804 10.833-15.167 10.833z"></path>
</symbol>
<symbol id="icon-components" viewBox="0 0 32 32">
<path style="fill: var(--color4, #4f4f4f)" d="M20.682 3.732c-0.45-0.452-1.074-0.732-1.762-0.732-0.002 0-0.004 0-0.006 0h0c-0.668 0-1.296 0.261-1.771 0.734l-1.409 1.412c-0.454 0.45-0.735 1.074-0.735 1.763 0 0.002 0 0.005 0 0.007v-0c0 0.47 0.129 0.922 0.372 1.312l-13.577 5.44c-1.066 0.475-1.795 1.526-1.795 2.746 0 0.832 0.339 1.585 0.887 2.129l0 0 12.72 12.581c0.54 0.542 1.287 0.878 2.112 0.878 0.004 0 0.008 0 0.011-0h-0.001c0.003 0 0.006 0 0.009 0 1.255 0 2.329-0.774 2.771-1.87l0.007-0.020 5.342-13.376c0.402 0.266 0.876 0.407 1.367 0.407 0.671 0 1.297-0.261 1.769-0.732l1.407-1.409c0.476-0.474 0.738-1.103 0.738-1.772s-0.262-1.3-0.732-1.769l-7.724-7.727zM16.658 29.367c-0.151 0.374-0.51 0.633-0.931 0.633-0.276 0-0.525-0.112-0.706-0.292l0 0-12.73-12.588c-0.182-0.181-0.294-0.431-0.294-0.707 0-0.408 0.245-0.759 0.595-0.913l0.006-0.003 6.215-2.49c4.19 1.393 8.38 0.052 12.571 4.522l-4.729 11.839zM26.992 13.58l-1.414 1.413c-0.090 0.091-0.215 0.147-0.353 0.147s-0.263-0.056-0.353-0.147l-1.769-1.767-1.431 3.589 0.118-0.303c-3.009-3.006-6.068-3.385-8.828-3.723-0.887-0.108-1.748-0.223-2.592-0.405l8.491-3.401-1.716-1.716c-0.090-0.091-0.146-0.215-0.146-0.353s0.056-0.263 0.146-0.353l1.415-1.415c0.090-0.090 0.215-0.146 0.353-0.146s0.262 0.056 0.353 0.146l7.726 7.727c0.198 0.196 0.198 0.512 0 0.708zM16.5 20.999c1.378 0 2.5-1.12 2.5-2.498 0-1.38-1.12-2.501-2.498-2.501-1.38 0-2.501 1.12-2.501 2.5 0 1.378 1.122 2.5 2.5 2.5zM16.5 16.999c0.013-0 0.028-0.001 0.043-0.001 0.829 0 1.502 0.672 1.502 1.502s-0.672 1.502-1.502 1.502c-0.015 0-0.030-0-0.045-0.001l0.002 0c-0.811-0.024-1.459-0.687-1.459-1.501s0.648-1.477 1.456-1.501l0.002-0zM29.502 0c-1.378 0-2.501 1.12-2.501 2.5 0 1.378 1.121 2.5 2.501 2.5 1.378 0 2.498-1.12 2.498-2.498 0-1.381-1.12-2.501-2.498-2.501zM29.502 4c-0.018 0.001-0.039 0.001-0.061 0.001-0.829 0-1.502-0.672-1.502-1.502s0.672-1.502 1.502-1.502c0.021 0 0.043 0 0.064 0.001l-0.003-0c0.803 0.034 1.441 0.692 1.441 1.5s-0.638 1.467-1.438 1.5l-0.003 0zM7.999 17.001c0.054 1.062 0.929 1.903 2 1.903s1.946-0.841 2-1.898l0-0.005c0-1.104-0.896-2-1.999-2s-2 0.896-2 1.999zM10.001 16c0.552 0 1 0.448 1 1s-0.448 1-1 1v0c-0.552 0-1-0.448-1-1s0.448-1 1-1v0zM12.001 23.001c-0-0.010-0.001-0.023-0.001-0.035 0-0.553 0.448-1.001 1.001-1.001s1.001 0.448 1.001 1.001c0 0.012-0 0.025-0.001 0.037l0-0.002c-0.019 0.537-0.46 0.966-1 0.966s-0.981-0.428-1-0.964l-0-0.002zM28.001 8c-0-0.010-0.001-0.023-0.001-0.035 0-0.553 0.448-1.001 1.001-1.001s1.001 0.448 1.001 1.001c0 0.012-0 0.025-0.001 0.037l0-0.002c-0.019 0.537-0.46 0.966-1 0.966s-0.981-0.428-1-0.964l-0-0.002z"></path>
</symbol>
<symbol id="icon-ecommerce" viewBox="0 0 32 32">
<path style="fill: var(--color4, #4f4f4f)" d="M16 20c0-1.105 0.895-2 2-2s2 0.895 2 2v0c0 1.105-0.895 2-2 2s-2-0.895-2-2v0zM29.001 12.999v-8.999c0-1.657-1.343-3.001-3.001-3.001v0h-20.5c-3.037 0.004-5.497 2.465-5.5 5.501v20c0.004 3.036 2.464 5.496 5.5 5.499h18c3.036-0.004 5.496-2.464 5.499-5.5v-1.499h0.001c3.999-3.002 3.999-8.999 0-12zM5.502 3.001h20.5c0.551 0 1.001 0.447 1.001 0.999v6.183c-0.297-0.113-0.641-0.18-0.999-0.183h-0.001v-5.001c0-0.552-0.447-0.999-0.999-0.999-0 0-0.001 0-0.001 0h-21.002c-0.552 0-0.999 0.447-0.999 0.999 0 0 0 0.001 0 0.001v-0 3.942c-0.618-0.628-0.999-1.49-0.999-2.441 0-0.001 0-0.001 0-0.002v0c0-1.933 1.567-3.499 3.499-3.499 0 0 0.001 0 0.001 0h-0zM25.001 6h-21.002v-1.001h21.001v1.001zM25.001 7.001v0.999h-21.002v-1.001h21.001zM25.001 9.001v0.999h-19.5c-0.54 0-1.045-0.132-1.5-0.35v-0.651h20.999zM27.001 26.5c0 1.933-1.566 3.5-3.499 3.5h-18.001c-0 0-0.001 0-0.001 0-1.933 0-3.499-1.567-3.499-3.499 0-0 0-0.001 0-0.001v0-15.761c0.941 0.785 2.162 1.262 3.495 1.262 0.002 0 0.003 0 0.005 0h20.499c0.551 0 1.001 0.448 1.001 1.001v1.999h-9.001c-2.762 0-5.001 2.239-5.001 5.001s2.239 5.001 5.001 5.001v0h9.001v1.499zM28.278 23.001h-10.277c-1.657-0.001-2.999-1.344-3.001-3v-0c0.001-1.657 1.344-2.999 3-3.001h9.001c0.615-0.007 1.228-0.306 1.601-0.804 0.105-0.14 0.185-0.297 0.25-0.46 0.010-0.022 0.025-0.039 0.033-0.062 0.719 0.943 1.115 2.098 1.115 3.327 0 1.538-0.622 2.965-1.723 4z"></path>
</symbol>
<symbol id="icon-editor" viewBox="0 0 32 32">
<path style="fill: var(--color4, #4f4f4f)" d="M29.394 2.58c-1.644-1.643-3.81-2.58-5.945-2.58-1.802 0-3.46 0.668-4.671 1.877l-4.866 4.905c-0.016 0.012-0.033 0.022-0.048 0.037-0.007 0.009-0.012 0.020-0.021 0.027l0.002 0.001-10.329 10.409c-0.462 0.462-0.812 1.036-1.007 1.677l-0.007 0.029-2.347 8.508c-0.002 0.022-0.155 0.69-0.155 1.030 0.001 1.933 1.569 3.5 3.503 3.5 0 0 0 0 0 0v0c0.385 0 1.13-0.185 1.157-0.188l8.478-2.228c0.67-0.202 1.244-0.554 1.706-1.017l0-0 15.262-15.383c2.777-2.778 2.464-7.434-0.711-10.604zM16.014 23.794c-0.099-0.971-0.354-1.861-0.74-2.676l0.021 0.049 9.455-9.454c0.578 1.825 0.282 3.735-0.985 5.003-0.009 0.009-0.018 0.012-0.026 0.021l0.014 0.014-7.728 7.791c0-0.25 0.012-0.494-0.011-0.748zM14.793 20.256c-0.39-0.655-0.827-1.222-1.324-1.731l0.002 0.002c-0.61-0.61-1.312-1.089-2.043-1.492l9.531-9.532c0.748 0.332 1.465 0.805 2.098 1.439 0.542 0.539 0.959 1.142 1.28 1.771l-9.545 9.543zM10.485 16.562c-0.846-0.358-1.828-0.576-2.859-0.599l-0.009-0 7.705-7.762c1.178-1.15 2.895-1.481 4.586-1.062l-9.422 9.424zM4.169 29.873c-0.11 0.025-0.448 0.111-0.678 0.127-0.823-0.009-1.486-0.677-1.489-1.5v-0c0.012-0.167 0.079-0.457 0.102-0.561l1.052-3.815c1.145-0.030 2.374 0.415 3.34 1.383 0.982 0.981 1.444 2.235 1.394 3.392l-3.722 0.975zM8.875 28.638c-0.025-1.342-0.57-2.738-1.671-3.839-1.042-1.042-2.406-1.644-3.766-1.698l0.996-3.606c0.071-0.241 0.215-0.479 0.391-0.686 2.006-1.435 5.090-1.012 7.233 1.132 2.267 2.267 2.618 5.588 0.871 7.569-0.102 0.058-0.221 0.111-0.345 0.152l-0.014 0.004-3.695 0.971zM28.69 11.772l-1.684 1.697c0-0.226 0.027-0.443 0.006-0.674-0.176-1.935-1.078-3.806-2.543-5.269-1.63-1.631-3.79-2.565-5.929-2.572l1.657-1.669c0.828-0.827 1.985-1.285 3.25-1.285 1.61 0 3.262 0.727 4.533 1.994 1.194 1.193 1.904 2.672 2.006 4.169 0.095 1.398-0.367 2.678-1.297 3.61z"></path>
</symbol>
<symbol id="icon-feather" viewBox="0 0 46 32">
<path style="fill: var(--color4, #4f4f4f)" d="M46.171 15.676c-0.014-0.060-0.005-0.124-0.028-0.185-0.009-0.025-0.030-0.037-0.039-0.060-0.014-0.036-0.011-0.075-0.030-0.107-4.188-8.018-13.307-13.764-22.926-13.764-9.623 0-18.74 5.737-22.933 13.753-0.018 0.034-0.016 0.071-0.030 0.107-0.011 0.023-0.030 0.036-0.039 0.060-0.023 0.060-0.014 0.124-0.028 0.185-0.028 0.096-0.047 0.207-0.051 0.321l-0 0.003c0 0.112 0.027 0.213 0.052 0.324 0.014 0.060 0.005 0.126 0.028 0.185 0.009 0.025 0.030 0.037 0.039 0.060 0.014 0.036 0.011 0.075 0.030 0.107 4.19 8.018 13.308 13.764 22.932 13.764 9.618 0 18.738-5.735 22.926-13.753 0.021-0.032 0.018-0.071 0.030-0.107 0.009-0.023 0.030-0.036 0.039-0.060 0.023-0.059 0.014-0.124 0.030-0.185 0.023-0.11 0.050-0.213 0.050-0.324s-0.027-0.215-0.052-0.324zM23.147 27.538c-8.112 0-16.052-4.608-20.007-11.548 3.977-6.948 11.906-11.541 20.007-11.541 8.107 0 16.048 4.612 20.005 11.548-3.979 6.951-11.906 11.541-20.005 11.541zM23.147 10.222c0.399 0 0.722 0.323 0.722 0.722s-0.323 0.722-0.722 0.722v0c-2.391 0.002-4.328 1.938-4.332 4.329v0c0 0.399-0.323 0.722-0.722 0.722s-0.722-0.323-0.722-0.722v0c0.001-3.186 2.582-5.768 5.767-5.772h0.009zM23.111 5.886c-0 0-0.001 0-0.001 0-5.584 0-10.11 4.526-10.11 10.11s4.526 10.11 10.109 10.11h0c5.502-0.106 9.922-4.591 9.922-10.108s-4.419-10.001-9.91-10.108l-0.010-0zM23.111 24.665c-4.784-0.005-8.661-3.881-8.667-8.664v-0.001c0.005-4.784 3.882-8.662 8.666-8.667h0c4.784 0.005 8.662 3.882 8.667 8.666v0c-0.005 4.784-3.882 8.662-8.666 8.667h-0z"></path>
</symbol>
<symbol id="icon-file-manager" viewBox="0 0 35 32">
<path style="fill: var(--color4, #4f4f4f)" d="M34.584 18.66l-4.335-16.257c-0.27-0.913-1.099-1.567-2.082-1.569h-21.667c-0.964 0-1.82 0.645-2.083 1.569l-4.335 16.257c-0.052 0.177-0.082 0.38-0.083 0.59v7.583c0 2.393 1.94 4.333 4.333 4.333v0h26c2.393 0 4.333-1.94 4.333-4.333v0-7.584c0-0.195-0.027-0.392-0.083-0.589zM32.5 26.833c0 1.193-0.973 2.167-2.167 2.167h-26c-1.195 0-2.167-0.973-2.167-2.167v-7.584l4.333-16.249h21.664l4.336 16.251v7.584zM25.72 5.167h-16.773c-0.5 0-0.92 0.338-1.046 0.798l-0.002 0.008-3.733 13c-0.023 0.083-0.036 0.179-0.036 0.277 0 0.599 0.485 1.084 1.084 1.084 0 0 0 0 0 0h4.947l1.568 3.136c0.368 0.733 1.117 1.197 1.939 1.197h7.331c0.821 0 1.569-0.464 1.937-1.197l1.568-3.136h4.948c0 0 0 0 0 0 0.599 0 1.084-0.485 1.084-1.084 0-0.099-0.013-0.195-0.038-0.286l0.002 0.008-3.732-13c-0.128-0.467-0.548-0.804-1.047-0.804-0 0-0.001 0-0.001 0h0zM26.304 18.167h-1.8c-0.827 0-1.568 0.457-1.939 1.197l-1.567 3.136h-7.332l-1.567-3.136c-0.361-0.715-1.089-1.197-1.93-1.197-0.003 0-0.006 0-0.009 0h-4.382l3.168-11.917h16.773l3.168 11.917h-2.584z"></path>
</symbol>
<symbol id="icon-icon" viewBox="0 0 32 32">
<path fill="#9e8cfc" style="fill: var(--color5, #9e8cfc)" d="M15.962 31.99c8.627 0 15.62-7.159 15.62-15.99s-6.992-15.99-15.62-15.99c-8.627 0-15.62 7.159-15.62 15.99s6.993 15.99 15.62 15.99z"></path>
<path fill="#fff" style="fill: var(--color3, #fff)" d="M11.050 30.179c0.639 0.22 2.785 0.927 2.876 0.236 0.050-0.378-1.083-0.767-2.616-1.589-2.27-1.228-4.218-2.7-5.915-4.421l-0.003-0.003c-2.461-2.449-4.005-5.817-4.073-9.546l-0-0.013c-0.13-4.837 1.74-8.748 4.814-11.272-3.76 2.936-6.010 7.431-6.127 12.235-0.091 3.499 0.876 6.447 2.692 9.13 0.571 0.742 1.216 1.385 1.935 1.936l0.025 0.018c1.74 1.332 4.286 2.564 6.392 3.287z"></path>
<path fill="#fff" style="fill: var(--color3, #fff)" d="M31.797 12.335c-0.967-4.609-3.979-7.835-8.006-10.115 3.086 2.219 7.418 6.936 4.858 11.097-2.166 3.333-7.427 2.68-10.312 1.096-3.422-1.88-7.705-6.106-3.481-10.237 2.738-2.674 11.449 0.324 9.916 4.32-0.895 2.325-4.376 1.809-5.941 0.672-1.155-0.84-2.126-2.28-1.611-3.77 0.164-0.477 0.14-1.218-0.526-0.673-0.492 0.407-0.747 1.077-0.834 1.703-0.729 5.212 8.448 9.253 11.17 4.21 1.413-2.617-0.877-6.419-3.76-7.975-2.164-1.173-4.42-1.999-7.182-1.798-4.418 0.313-8.125 3.115-8.591 7.683-0.464 4.54 2.536 8.626 6.068 11.070 3.713 2.567 8.704 4.26 13.272 2.729 4.093-1.373 5.785-6.128 4.961-10.009z"></path>
</symbol>
<symbol id="icon-knowledge" viewBox="0 0 35 32">
<path style="fill: var(--color4, #4f4f4f)" d="M34.667 7.333c0-0.004 0-0.008 0-0.012 0-1.533-1.066-2.818-2.498-3.151l-0.022-0.004-14.097-3.253c-0.215-0.050-0.461-0.079-0.715-0.079-0.26 0-0.512 0.030-0.754 0.088l0.022-0.004-14.083 3.249c-1.453 0.338-2.52 1.622-2.52 3.155 0 0.005 0 0.009 0 0.014v-0.001c0 1.523 1.037 2.825 2.52 3.168l2.897 0.668v9.164c0 2.875 3.291 5.417 11.916 5.417 8.627 0 11.917-2.543 11.917-5.417v-9.164l2.896-0.668c1.454-0.338 2.52-1.622 2.52-3.156 0-0.004 0-0.009-0-0.013v0.001zM27.083 20.333c0 1.197-3.249 3.251-9.749 3.251s-9.751-2.053-9.751-3.251v-8.664l9.033 2.085c0.215 0.050 0.462 0.079 0.715 0.079 0.26 0 0.513-0.030 0.755-0.087l-0.022 0.004 9.019-2.080v8.663zM17.576 11.64c-0.073 0.016-0.157 0.026-0.243 0.026s-0.17-0.009-0.251-0.027l0.008 0.001-14.083-3.251c-0.484-0.115-0.839-0.544-0.839-1.056s0.355-0.941 0.832-1.055l0.007-0.001 14.083-3.251c0.073-0.017 0.158-0.026 0.244-0.026s0.171 0.010 0.252 0.028l-0.008-0.001 14.083 3.251c0.482 0.117 0.835 0.545 0.835 1.056s-0.352 0.939-0.827 1.054l-0.007 0.002-14.083 3.251zM31.416 12.749c0-0.598 0.485-1.083 1.083-1.083s1.083 0.485 1.083 1.083v9.751c0 0.598-0.485 1.083-1.083 1.083s-1.083-0.485-1.083-1.083v-9.751zM32.5 24.667c1.196 0 2.167 3.137 2.167 4.333-0.042 1.164-0.996 2.092-2.167 2.092s-2.125-0.928-2.167-2.088l-0-0.004c0-1.196 0.969-4.333 2.167-4.333z"></path>
</symbol>
<symbol id="icon-line" viewBox="0 0 320 32">
<path fill="none" stroke="#9e8cfc" style="stroke: var(--color5, #9e8cfc)" stroke-linejoin="miter" stroke-linecap="round" stroke-miterlimit="4" stroke-width="32" d="M16 16h288"></path>
</symbol>
<symbol id="icon-log-out" viewBox="0 0 32 32">
<path style="fill: var(--color4, #4f4f4f)" d="M22.004 0c-5.523 0-10 4.477-10 10v0c0.008 1.31 0.269 2.556 0.738 3.695l-0.024-0.066-12.149 12.148c-0.352 0.352-0.569 0.684-0.569 1.223v2.999c0 1.071 0.929 2 2 2h3.001c0.535 0 0.874-0.215 1.226-0.564l1.435-1.436h2.342c1.104 0 2-0.896 2-2v-2h2c1.104 0 2-0.896 2-2v-2.343l2.369-2.372c1.129 0.446 2.345 0.715 3.631 0.715 5.523-0.001 9.999-4.477 10-10v-0c-0.001-5.523-4.477-9.999-10-10h-0zM22.004 18c-1.494-0.008-2.887-0.428-4.076-1.152l0.035 0.020-0.345 0.343-3.029 3.031c-0.363 0.362-0.587 0.862-0.587 1.414v2.343h-2c-1.104 0-2 0.895-2 2v2h-2.341c-0.53 0-1.040 0.21-1.415 0.586l-1.417 1.418-2.827-0.004-0.002-2.85 13.135-13.11c-0.705-1.153-1.125-2.547-1.132-4.038v-0.002c0.001-4.418 3.582-7.999 8-7.999s8 3.582 8 8c0 4.418-3.581 7.999-7.999 8h-0zM27.82 8.24c-1.14-1.575-2.48-2.916-4.004-4.020l-0.051-0.036c-0.156-0.114-0.351-0.182-0.562-0.182-0.115 0-0.225 0.020-0.327 0.057l0.007-0.002c-1.388 0.489-2.338 1.44-2.826 2.828-0.035 0.095-0.055 0.205-0.055 0.32 0 0.211 0.069 0.406 0.185 0.564l-0.002-0.003c1.139 1.574 2.479 2.914 4.002 4.019l0.051 0.036c0.256 0.185 0.583 0.23 0.88 0.128 1.391-0.486 2.342-1.439 2.831-2.828 0.035-0.095 0.055-0.205 0.055-0.32 0-0.211-0.069-0.407-0.185-0.565l0.002 0.003zM24.82 11.009c-1.478-1.072-2.74-2.324-3.787-3.745l-0.033-0.047c0.388-1.103 1.111-1.828 2.182-2.222 1.481 1.072 2.742 2.332 3.782 3.763l0.033 0.048c-0.39 1.095-1.111 1.814-2.177 2.203z"></path>
</symbol>
<symbol id="icon-mail" viewBox="0 0 32 32">
<path style="fill: var(--color4, #4f4f4f)" d="M28 5.001h-24c-2.209 0-4 1.791-4 4v0 12.999c0 2.209 1.791 4 4 4v0h24c2.209 0 4-1.791 4-4v0-13.001c0-2.209-1.791-4-4-4v0zM2 10.25l6.999 5.25-6.999 5.249v-10.497zM30 22c0 1.104-0.898 2-2 2h-24c-1.104-0.001-1.999-0.896-2-2v-0l7.833-5.874 4.367 3.276c0.495 0.374 1.121 0.6 1.799 0.6s1.304-0.225 1.807-0.605l-0.008 0.005 4.369-3.276 7.833 5.874zM30 20.75l-7.001-5.249 7.001-5.25v10.5zM17.2 18.602c-0.328 0.25-0.743 0.4-1.194 0.4-0.002 0-0.004 0-0.007 0h0c-0.436 0-0.85-0.139-1.2-0.4l-12.8-9.602c0-1.103 0.897-2 2-2h24c1.102 0 2 0.898 2 2l-12.8 9.602z"></path>
</symbol>
<symbol id="icon-maps" viewBox="0 0 25 32">
<path style="fill: var(--color4, #4f4f4f)" d="M12.31 17.746c3.312-0.003 5.996-2.688 6-6v-0c-0.003-3.312-2.688-5.997-6-6h-0c-3.312 0.003-5.997 2.688-6 6v0c0.003 3.312 2.688 5.997 6 6h0zM12.31 6.746c2.76 0.003 4.997 2.24 4.999 5v0c-0.003 2.76-2.239 4.997-4.999 4.999h-0c-2.76-0.002-4.998-2.239-5.001-4.999v-0c0.002-2.761 2.24-4.999 5-5.001h0zM12.308 0c-0.009-0-0.019-0-0.030-0-6.611 0-11.97 5.359-11.97 11.97 0 0.010 0 0.021 0 0.031v-0.002c0 7.001 6.001 14.162 10.375 19.195 0.017 0.020 0.719 0.805 1.588 0.805h0.076c0.866 0 1.569-0.785 1.585-0.805 4.378-5.034 10.378-12.193 10.378-19.194 0-0.009 0-0.019 0-0.030 0-6.612-5.36-11.972-11.972-11.972-0.011 0-0.022 0-0.032 0h0.002zM12.425 29.883c-0.040 0.034-0.084 0.066-0.13 0.096l-0.005 0.003c-0.010-0.027-0.084-0.086-0.128-0.133-3.665-4.218-9.854-11.335-9.854-17.847 0-5.514 4.487-10.001 10-10.001 5.516 0 10.002 4.487 10.002 10.002 0 6.511-6.188 13.628-9.886 17.881z"></path>
</symbol>
<symbol id="icon-news" viewBox="0 0 32 32">
<path style="fill: var(--color4, #4f4f4f)" d="M29.001 0h-22c-0 0-0.001 0-0.001 0-1.657 0-2.999 1.343-2.999 2.999 0 0 0 0.001 0 0.001v-0 1.999h-1.001c-1.657 0-2.999 1.343-2.999 2.999 0 0 0 0.001 0 0.001v-0 20c0 2.209 1.791 4 4 4v0h24c2.209 0 4-1.791 4-4v0-25.001c0-1.657-1.343-2.999-2.999-2.999-0 0-0.001 0-0.001 0h0zM30 28c0 1.102-0.898 2-2 2h-24c-1.103 0-2-0.898-2-2v-20c0-0.553 0.448-1.001 1.001-1.001h0.999v20c0 0.552 0.448 1 1 1s1-0.448 1-1v-24c0-0.551 0.448-0.999 1.001-0.999h22c0.55 0 0.999 0.448 0.999 1.001v24.999zM19.498 13.006c-0.266-0.014-0.476-0.232-0.476-0.5s0.21-0.487 0.475-0.5l0.001-0h8c0.276 0 0.5 0.224 0.5 0.5s-0.224 0.5-0.5 0.5v0h-8zM19.498 10.005c-0.261-0.019-0.466-0.235-0.466-0.5s0.205-0.481 0.464-0.5l0.002-0h8c0.276 0 0.5 0.224 0.5 0.5s-0.224 0.5-0.5 0.5v0h-8zM19.498 7.006c-0.266-0.014-0.476-0.232-0.476-0.5s0.21-0.487 0.475-0.5l0.001-0h8c0.276 0 0.5 0.224 0.5 0.5s-0.224 0.5-0.5 0.5v0h-8zM16.5 27.003c0.261 0.019 0.466 0.235 0.466 0.5s-0.205 0.481-0.464 0.5l-0.002 0h-8c-0.276 0-0.5-0.224-0.5-0.5s0.224-0.5 0.5-0.5v0h8zM16.5 24.002c0.266 0.014 0.476 0.232 0.476 0.5s-0.21 0.487-0.475 0.5l-0.001 0h-8c-0.276 0-0.5-0.224-0.5-0.5s0.224-0.5 0.5-0.5v0h8zM16.5 21.003c0.261 0.019 0.466 0.235 0.466 0.5s-0.205 0.481-0.464 0.5l-0.002 0h-8c-0.276 0-0.5-0.224-0.5-0.5s0.224-0.5 0.5-0.5v0h8zM27.5 27.003c0.276 0 0.5 0.224 0.5 0.5s-0.224 0.5-0.5 0.5v0h-8c-0.276 0-0.5-0.224-0.5-0.5s0.224-0.5 0.5-0.5v0h8zM27.5 24.002c0.276 0 0.5 0.224 0.5 0.5s-0.224 0.5-0.5 0.5v0h-8c-0.276 0-0.5-0.224-0.5-0.5s0.224-0.5 0.5-0.5v0h8zM27.5 21.003c0.276 0 0.5 0.224 0.5 0.5s-0.224 0.5-0.5 0.5v0h-8c-0.276 0-0.5-0.224-0.5-0.5s0.224-0.5 0.5-0.5v0h8zM27.5 15.003c0.261 0.019 0.466 0.235 0.466 0.5s-0.205 0.481-0.464 0.5l-0.002 0h-19.001c-0.276 0-0.5-0.224-0.5-0.5s0.224-0.5 0.5-0.5h19.001zM27.5 18.002c0.276 0 0.5 0.224 0.5 0.5s-0.224 0.5-0.5 0.5v0h-19.001c-0.276 0-0.5-0.224-0.5-0.5s0.224-0.5 0.5-0.5v0h19.001zM8.999 12.999h7.001c0.554 0 1.001-0.447 1.001-0.999v-6.996c0-0 0-0.001 0-0.001 0-0.552-0.447-0.999-0.999-0.999-0 0-0.001 0-0.001 0h-7.001c-0.552 0-0.999 0.447-0.999 0.999 0 0 0 0.001 0 0.001v-0 6.996c0 0.551 0.447 1.001 1.001 1.001zM10 6h5.001v5.001h-5.001v-5.001z"></path>
</symbol>
<symbol id="icon-pages" viewBox="0 0 32 32">
<path style="fill: var(--color4, #4f4f4f)" d="M31.414 7.585l-6-6c-0.362-0.362-0.862-0.586-1.414-0.586h-21.001c-1.656 0.002-2.998 1.344-2.999 3v24c0.001 1.657 1.344 2.999 3 3.001h26c1.656-0.002 2.998-1.344 2.999-3v-19.001c0-0.529-0.21-1.040-0.586-1.415zM30 28c0 0.554-0.447 1.001-1.001 1.001h-25.999c-0.552 0-0.999-0.447-0.999-0.999 0-0 0-0.001 0-0.001v0-24c0-0.554 0.447-1.001 1.001-1.001h20v4h-0.002c0 1.657 1.343 3 2.999 3.001h4.003v18zM26.997 8.999h-0.999c-1.104-0.001-1.999-0.896-2-2v-0h0.002v-4l6 6.001h-3.003zM15.502 8c-0.276 0-0.5-0.224-0.5-0.5s0.224-0.5 0.5-0.5v0h4.999c0.266 0.014 0.476 0.232 0.476 0.5s-0.21 0.487-0.475 0.5l-0.001 0h-4.999zM15.502 11.001c-0.276 0-0.5-0.224-0.5-0.5s0.224-0.5 0.5-0.5v0h4.999c0.266 0.014 0.476 0.232 0.476 0.5s-0.21 0.487-0.475 0.5l-0.001 0h-4.999zM15.002 13.499c0-0.276 0.223-0.498 0.5-0.498h12c0.261 0.019 0.466 0.235 0.466 0.5s-0.205 0.481-0.464 0.5l-0.002 0h-12c-0.276 0-0.5-0.224-0.5-0.5v0zM27.502 19.001c0.276 0 0.5 0.224 0.5 0.5s-0.224 0.5-0.5 0.5v0h-23.002c-0.266-0.014-0.476-0.232-0.476-0.5s0.21-0.487 0.475-0.5l0.001-0h23.001zM27.502 22c0.276 0 0.5 0.224 0.5 0.5s-0.224 0.5-0.5 0.5v0h-23.002c-0.266-0.014-0.476-0.232-0.476-0.5s0.21-0.487 0.475-0.5l0.001-0h23.001zM27.502 25.001c0.276 0 0.5 0.224 0.5 0.5s-0.224 0.5-0.5 0.5v0h-23.002c-0.266-0.014-0.476-0.232-0.476-0.5s0.21-0.487 0.475-0.5l0.001-0h23.001zM27.502 16c0.266 0.014 0.476 0.232 0.476 0.5s-0.21 0.487-0.475 0.5l-0.001 0h-23.002c-0.276 0-0.5-0.224-0.5-0.5s0.224-0.5 0.5-0.5v0h23.001zM4.999 14h7.001c0.554 0 1.001-0.447 1.001-1.001v-5.998c0-0 0-0.001 0-0.001 0-0.552-0.447-0.999-0.999-0.999-0 0-0.001 0-0.001 0h-7.001c-0.552 0-0.999 0.447-0.999 0.999 0 0 0 0.001 0 0.001v-0 6c0 0.551 0.447 0.999 1.001 0.999zM6 8h5.001v4h-5.001v-4z"></path>
</symbol>
<symbol id="icon-permissions" viewBox="0 0 25 32">
<path style="fill: var(--color4, #4f4f4f)" d="M21.308 13.001v-4c0-0 0-0.001 0-0.001 0-4.97-4.029-8.999-8.999-8.999-0 0-0.001 0-0.001 0h0c-0 0-0.001 0-0.001 0-4.97 0-8.999 4.029-8.999 8.999 0 0 0 0.001 0 0.001v-0 4c-1.657 0-2.999 1.343-2.999 2.999v0 7.001c0 4.97 4.029 8.999 8.999 8.999 0 0 0.001 0 0.001 0h6c4.97 0 8.999-4.029 8.999-8.999 0-0 0-0.001 0-0.001v0-6.999c0-0 0-0.001 0-0.001 0-1.656-1.343-2.999-2.999-2.999-0 0-0.001 0-0.001 0h0zM5.308 9.001c0-3.866 3.134-7 7-7s7 3.134 7 7v4h-2.001v-4c0-2.761-2.238-4.999-4.999-4.999s-4.999 2.238-4.999 4.999v0 3.998h-2v-4zM16.308 9.001v4h-8v-4c0-2.209 1.791-4 4-4s4 1.791 4 4v0zM22.308 19.001v4c-0.006 3.864-3.137 6.995-7 6.999h-5.998c-3.864-0.005-6.996-3.136-7.001-7v-7c0-0.551 0.448-1.001 1.001-1.001h18c0.55 0 0.999 0.449 0.999 1.001v3.001zM12.308 19.001c1.104 0 2 0.895 2 1.999 0 0.609-0.329 1.769-0.666 2.683-0.273 0.738-0.553 1.316-1.334 1.316-0.719 0-1.061-0.585-1.333-1.327-0.334-0.911-0.667-2.064-0.667-2.671 0-1.105 0.896-2 2-2z"></path>
</symbol>
<symbol id="icon-profile" viewBox="0 0 32 32">
<path style="fill: var(--color4, #4f4f4f)" d="M31.11 28.336c-0.201-0.133-3.849-2.526-9.273-3.698 1.99-2.522 3.268-5.913 3.81-8.17 0.754-3.127 0.462-9.248-2.543-13.062-1.756-2.228-4.213-3.406-7.105-3.406s-5.349 1.178-7.104 3.406c-3.003 3.813-3.296 9.932-2.543 13.061 0.543 2.257 1.82 5.649 3.81 8.17-5.424 1.174-9.071 3.566-9.271 3.698-0.543 0.363-0.895 0.974-0.895 1.666 0 1.104 0.895 1.999 1.999 1.999 0.001 0 0.003 0 0.004 0h28c1.104-0.002 1.998-0.897 1.998-2.001 0-0.69-0.349-1.299-0.881-1.658l-0.007-0.005zM20.267 23.398l-0.326 0.414c-2.385 2.74-5.495 2.74-7.878 0l-0.327-0.414c-2.785-3.529-4.167-8.197-3.572-12.65 0.544-4.279 2.997-8.748 7.836-8.748 4.841 0 7.294 4.47 7.839 8.75 0.592 4.455-0.784 9.118-3.572 12.649zM2 30c0.138-0.092 3.526-2.314 8.586-3.408l2.484-0.537c0.887 0.582 1.861 0.944 2.93 0.944 1.071 0 2.043-0.362 2.929-0.944l2.485 0.537c5.020 1.086 8.396 3.282 8.586 3.408h-28z"></path>
</symbol>
<symbol id="icon-vector" viewBox="0 0 32 32">
<path style="fill: var(--color4, #4f4f4f)" d="M27.001 4.997l-22 0.004c-0.554 0-1.001 0.443-1.001 0.996v14c0 0.554 0.447 0.999 1.001 0.999h22c0.553 0 0.999-0.447 0.999-0.999v-14c0-0 0-0.001 0-0.001 0-0.552-0.447-0.999-0.999-0.999-0 0-0.001 0-0.001 0h0zM27.001 20h-22v-14.004h22v14.004zM29.001 0.999h-26c-0 0-0.001 0-0.001 0-1.657 0-2.999 1.343-2.999 2.999 0 0 0 0.001 0 0.001v-0 20c0 0 0 0.001 0 0.001 0 1.653 1.338 2.993 2.99 2.997h10.010v1.217l-6.242 0.811c-0.439 0.112-0.758 0.504-0.758 0.97 0 0.552 0.447 0.999 0.999 0.999 0 0 0.001 0 0.001 0h18c0.002 0 0.003 0 0.005 0 0.552 0 0.999-0.447 0.999-0.999 0-0.468-0.322-0.861-0.756-0.97l-0.007-0.001-6.242-0.81v-1.218h10.011c1.652-0.004 2.99-1.344 2.99-2.997 0 0 0 0 0 0v0-20c0-0 0-0.001 0-0.001 0-1.656-1.343-2.999-2.999-2.999-0 0-0.001 0-0.001 0h0zM30 24c-0.001 0.552-0.448 1-1.001 1.001h-25.999c-0.552-0.001-0.999-0.448-0.999-1.001 0 0 0 0 0 0v0-20c0-0.553 0.448-1.001 1.001-1.001h26c0.55 0 0.999 0.449 0.999 1.001v20z"></path>
</symbol>
<symbol id="icon-arrow1" viewBox="0 0 32 32">
<path style="fill: var(--color1, #392c72)" d="M17.667 16l-3.837-4.176c-0.152-0.154-0.245-0.365-0.245-0.598s0.094-0.445 0.245-0.598l-0 0c0.151-0.152 0.361-0.247 0.592-0.247s0.441 0.094 0.592 0.247l0 0 4.677 4.773c0.151 0.154 0.245 0.365 0.245 0.598s-0.094 0.444-0.245 0.598l0-0-4.678 4.773c-0.151 0.154-0.36 0.249-0.592 0.249s-0.441-0.095-0.592-0.249l-0-0c-0.152-0.154-0.245-0.365-0.245-0.598s0.094-0.444 0.245-0.598l-0 0 3.84-4.173zM16 0c8.837 0 16 7.163 16 16 0 8.838-7.163 16-16 16s-16-7.162-16-16c0-8.837 7.163-16 16-16zM16 29.923c0.044 0 0.097 0.001 0.149 0.001 7.69 0 13.925-6.234 13.925-13.925s-6.234-13.925-13.925-13.925c-0.052 0-0.105 0-0.157 0.001l0.008-0c-7.626 0.084-13.776 6.286-13.776 13.924s6.15 13.84 13.768 13.924l0.008 0z"></path>
</symbol>
</defs>
</svg>
